# xmcd CD database file
#
# Track frame offsets:
#	150
#	20570
#	47202
#	70957
#	94264
#	110963
#	132288
#	157257
#	177287
#	210574
#	236387
#	261607
#	282399
#
# Disc length: 4082 seconds
#
# Revision: 0
# Processed by: cddbd v1.5.2PL0 Copyright (c) Steve Scherf et al.
# Submitted via: CDex 1.70beta2
#
DISCID=cd0ff00d
DTITLE=三澤 秋 - 星影の天の原
DYEAR=2009
DGENRE=東方アレンジ
TTITLE0=静寂の月
TTITLE1=霧の香勾引ふ
TTITLE2=Eternal Rite
TTITLE3=Fallen Heaven
TTITLE4=宵風唄
TTITLE5=Forget-me-not
TTITLE6=光の都
TTITLE7=オニのようにかわいく
TTITLE8=Shinto Shrine
TTITLE9=Nostalgia
TTITLE10=Voile, the Magic Library
TTITLE11=Blaze of Colors
TTITLE12=Starlight Vision(09 Rearrangement)
EXTD=YEAR: 2009
EXTT0=
EXTT1=
EXTT2=
EXTT3=
EXTT4=
EXTT5=
EXTT6=
EXTT7=
EXTT8=
EXTT9=
EXTT10=
EXTT11=
EXTT12=
PLAYORDER=
